<svg width="41" height="47" viewBox="0 0 41 47" fill="none" xmlns="http://www.w3.org/2000/svg">
<path d="M33.4682 5.06399L33.2206 4.72748L33.1865 4.7643C31.8759 3.14971 30.2785 1.89276 28.579 1.13886C26.8795 0.384955 25.1474 0.164917 23.5832 0.504196C22.0189 0.843476 20.6864 1.72821 19.7398 3.05604C18.7932 4.38387 18.2712 6.10052 18.2342 8.00741C18.1972 9.91429 18.6466 11.9335 19.5306 13.8313C20.4146 15.7292 21.6969 17.4282 23.2293 18.7317C24.7616 20.0352 26.4814 20.8901 28.1895 21.1973C29.8977 21.5045 31.5245 21.2516 32.8816 20.4677C33.2395 20.2611 33.5393 19.991 33.8396 19.7292C34.032 20.2877 34.1781 20.8535 34.2758 21.4179C34.4743 22.1823 34.5199 22.9179 34.568 23.6578C34.6927 24.4162 34.5193 25.0786 34.5203 25.7886C34.4982 26.4919 34.2595 27.0892 34.1612 27.7195C34.0805 28.3654 33.7646 28.8475 33.5929 29.369C33.3866 29.8676 33.2456 30.3685 32.9871 30.7176L32.3988 31.6907L31.8867 32.5486L35.0559 36.2523L35.8316 35.3936C36.0758 35.1156 36.3804 34.7799 36.7209 34.3921C37.0904 34.0361 37.3843 33.4754 37.7442 32.9109C38.0739 32.3125 38.5459 31.7689 38.8092 30.9633C39.0893 30.1795 39.497 29.4247 39.6952 28.477C39.8664 27.5192 40.1972 26.5833 40.206 25.4881C40.2907 24.4175 40.3484 23.3112 40.2237 22.1618C40.1875 21.0183 39.9518 19.8759 39.7398 18.7341C39.4959 17.6107 39.1805 16.5 38.8365 15.443C38.1251 13.3367 37.2589 11.4453 36.4384 9.87287C35.6055 8.30476 34.8358 7.04542 34.2349 6.15953C33.9894 5.7864 33.7337 5.42095 33.4682 5.06399ZM15.8971 15.2087L15.6495 14.8722L15.6154 14.909C14.3048 13.2944 12.7073 12.0375 11.0078 11.2836C9.30834 10.5297 7.57628 10.3096 6.01203 10.6489C4.44778 10.9882 3.11528 11.8729 2.16868 13.2007C1.22208 14.5286 0.700068 16.2452 0.663045 18.1521C0.626022 20.059 1.0755 22.0782 1.95947 23.976C2.84344 25.8739 4.12578 27.5729 5.65814 28.8764C7.19049 30.1799 8.91023 31.0348 10.6184 31.342C12.3266 31.6492 13.9533 31.3963 15.3105 30.6124C15.6683 30.4058 15.9682 30.1357 16.2685 29.8738C16.4609 30.4324 16.607 30.9982 16.7046 31.5626C16.9031 32.327 16.9487 33.0626 16.9968 33.8025C17.1216 34.5609 16.9481 35.2233 16.9491 35.9333C16.9271 36.6366 16.6884 37.2339 16.5901 37.8642C16.5094 38.5101 16.1935 38.9922 16.0217 39.5137C15.8155 40.0123 15.6745 40.5132 15.4159 40.8623L14.8277 41.8354L14.3147 42.6881L17.4839 46.3918L18.2596 45.533C18.5038 45.2551 18.8084 44.9194 19.1489 44.5316C19.5184 44.1756 19.8123 43.6149 20.1722 43.0504C20.5019 42.452 20.9739 41.9084 21.2372 41.1028C21.5173 40.319 21.925 39.5642 22.1232 38.6165C22.2944 37.6587 22.6252 36.7228 22.634 35.6276C22.7187 34.557 22.7764 33.4507 22.6517 32.3013C22.6155 31.1578 22.3798 30.0154 22.1678 28.8736C21.9239 27.7502 21.6085 26.6395 21.2645 25.5825C20.5531 23.4762 19.6869 21.5848 18.8664 20.0124C18.0335 18.4443 17.2638 17.1849 16.6629 16.299C16.4169 15.9282 16.1615 15.5645 15.8971 15.2087Z" fill="#FF9800" fill-opacity="0.23"/>
</svg>
